<svg width="149" height="40" viewBox="0 0 149 40" fill="none" xmlns="http://www.w3.org/2000/svg">
<path d="M65.0653 16.5455V34H62.2528L54.0284 22.1108H53.8835V34H50.7216V16.5455H53.5511L61.767 28.4432H61.9205V16.5455H65.0653ZM74.0845 34.2557C72.8061 34.2557 71.6982 33.9744 70.7607 33.4119C69.8232 32.8494 69.0959 32.0625 68.5788 31.0511C68.0675 30.0398 67.8118 28.858 67.8118 27.5057C67.8118 26.1534 68.0675 24.9687 68.5788 23.9517C69.0959 22.9347 69.8232 22.1449 70.7607 21.5824C71.6982 21.0199 72.8061 20.7386 74.0845 20.7386C75.3629 20.7386 76.4709 21.0199 77.4084 21.5824C78.3459 22.1449 79.0703 22.9347 79.5817 23.9517C80.0987 24.9687 80.3572 26.1534 80.3572 27.5057C80.3572 28.858 80.0987 30.0398 79.5817 31.0511C79.0703 32.0625 78.3459 32.8494 77.4084 33.4119C76.4709 33.9744 75.3629 34.2557 74.0845 34.2557ZM74.1016 31.7841C74.7947 31.7841 75.3743 31.5937 75.8402 31.2131C76.3061 30.8267 76.6527 30.3097 76.88 29.6619C77.1129 29.0142 77.2294 28.2926 77.2294 27.4972C77.2294 26.696 77.1129 25.9716 76.88 25.3239C76.6527 24.6705 76.3061 24.1506 75.8402 23.7642C75.3743 23.3778 74.7947 23.1847 74.1016 23.1847C73.3913 23.1847 72.8004 23.3778 72.3288 23.7642C71.8629 24.1506 71.5135 24.6705 71.2805 25.3239C71.0533 25.9716 70.9396 26.696 70.9396 27.4972C70.9396 28.2926 71.0533 29.0142 71.2805 29.6619C71.5135 30.3097 71.8629 30.8267 72.3288 31.2131C72.8004 31.5937 73.3913 31.7841 74.1016 31.7841ZM89.5128 20.9091V23.2955H81.9872V20.9091H89.5128ZM83.8452 17.7727H86.9304V30.0625C86.9304 30.4773 86.9929 30.7955 87.1179 31.017C87.2486 31.233 87.419 31.3807 87.6293 31.4602C87.8395 31.5398 88.0724 31.5795 88.3281 31.5795C88.5213 31.5795 88.6974 31.5653 88.8565 31.5369C89.0213 31.5085 89.1463 31.483 89.2315 31.4602L89.7514 33.8722C89.5866 33.929 89.3509 33.9915 89.044 34.0597C88.7429 34.1278 88.3736 34.1676 87.9361 34.179C87.1634 34.2017 86.4673 34.0852 85.848 33.8295C85.2287 33.5682 84.7372 33.1648 84.3736 32.6193C84.0156 32.0739 83.8395 31.392 83.8452 30.5739V17.7727ZM97.7479 34.2557C96.4354 34.2557 95.3018 33.983 94.3473 33.4375C93.3984 32.8864 92.6683 32.108 92.157 31.1023C91.6456 30.0909 91.3899 28.9006 91.3899 27.5312C91.3899 26.1847 91.6456 25.0028 92.157 23.9858C92.674 22.9631 93.3956 22.1676 94.3217 21.5994C95.2479 21.0256 96.3359 20.7386 97.5859 20.7386C98.3928 20.7386 99.1541 20.8693 99.87 21.1307C100.592 21.3864 101.228 21.7841 101.779 22.3239C102.336 22.8636 102.773 23.5511 103.092 24.3864C103.41 25.2159 103.569 26.2045 103.569 27.3523V28.2983H92.8388V26.2188H100.612C100.606 25.6278 100.478 25.1023 100.228 24.642C99.978 24.1761 99.6286 23.8097 99.1797 23.5426C98.7365 23.2756 98.2195 23.142 97.6286 23.142C96.9979 23.142 96.4439 23.2955 95.9666 23.6023C95.4893 23.9034 95.1172 24.3011 94.8501 24.7955C94.5888 25.2841 94.4553 25.821 94.4496 26.4062V28.2216C94.4496 28.983 94.5888 29.6364 94.8672 30.1818C95.1456 30.7216 95.5348 31.1364 96.0348 31.4261C96.5348 31.7102 97.12 31.8523 97.7905 31.8523C98.2393 31.8523 98.6456 31.7898 99.0092 31.6648C99.3729 31.5341 99.6882 31.3438 99.9553 31.0938C100.222 30.8438 100.424 30.5341 100.56 30.1648L103.441 30.4886C103.259 31.25 102.913 31.9148 102.401 32.483C101.896 33.0455 101.248 33.483 100.458 33.7955C99.6683 34.1023 98.7649 34.2557 97.7479 34.2557ZM106.315 34V16.5455H112.861C114.202 16.5455 115.327 16.7955 116.236 17.2955C117.151 17.7955 117.841 18.483 118.307 19.358C118.778 20.2273 119.014 21.2159 119.014 22.3239C119.014 23.4432 118.778 24.4375 118.307 25.3068C117.835 26.1761 117.139 26.8608 116.219 27.3608C115.298 27.8551 114.165 28.1023 112.818 28.1023H108.48V25.5028H112.392C113.176 25.5028 113.818 25.3665 114.318 25.0938C114.818 24.821 115.188 24.446 115.426 23.9688C115.67 23.4915 115.793 22.9432 115.793 22.3239C115.793 21.7045 115.67 21.1591 115.426 20.6875C115.188 20.2159 114.815 19.8494 114.31 19.5881C113.81 19.321 113.165 19.1875 112.375 19.1875H109.477V34H106.315ZM125.157 34.2642C124.327 34.2642 123.58 34.1165 122.915 33.821C122.256 33.5199 121.734 33.0767 121.347 32.4915C120.967 31.9062 120.776 31.1847 120.776 30.3267C120.776 29.5881 120.913 28.9773 121.185 28.4943C121.458 28.0114 121.83 27.625 122.302 27.3352C122.773 27.0455 123.305 26.8267 123.896 26.679C124.492 26.5256 125.109 26.4148 125.745 26.3466C126.512 26.267 127.134 26.196 127.612 26.1335C128.089 26.0653 128.435 25.9631 128.651 25.8267C128.873 25.6847 128.984 25.4659 128.984 25.1705V25.1193C128.984 24.4773 128.793 23.9801 128.413 23.6278C128.032 23.2756 127.484 23.0994 126.768 23.0994C126.012 23.0994 125.413 23.2642 124.969 23.5938C124.532 23.9233 124.237 24.3125 124.083 24.7614L121.202 24.3523C121.43 23.5568 121.805 22.892 122.327 22.358C122.85 21.8182 123.489 21.4148 124.245 21.1477C125.001 20.875 125.836 20.7386 126.751 20.7386C127.381 20.7386 128.009 20.8125 128.634 20.9602C129.259 21.108 129.83 21.3523 130.347 21.6932C130.864 22.0284 131.279 22.4858 131.592 23.0653C131.91 23.6449 132.069 24.3693 132.069 25.2386V34H129.103V32.2017H129.001C128.813 32.5653 128.549 32.9062 128.208 33.2244C127.873 33.5369 127.45 33.7898 126.938 33.983C126.433 34.1705 125.839 34.2642 125.157 34.2642ZM125.958 31.9972C126.577 31.9972 127.114 31.875 127.569 31.6307C128.023 31.3807 128.373 31.0511 128.617 30.642C128.867 30.233 128.992 29.7869 128.992 29.304V27.7614C128.896 27.8409 128.731 27.9148 128.498 27.983C128.271 28.0511 128.015 28.1108 127.731 28.1619C127.447 28.2131 127.165 28.2585 126.887 28.2983C126.609 28.3381 126.367 28.3722 126.163 28.4006C125.702 28.4631 125.29 28.5653 124.927 28.7074C124.563 28.8494 124.276 29.0483 124.066 29.304C123.856 29.554 123.751 29.8778 123.751 30.2756C123.751 30.8438 123.958 31.2727 124.373 31.5625C124.788 31.8523 125.316 31.9972 125.958 31.9972ZM140.029 34.2301C139.001 34.2301 138.08 33.9659 137.268 33.4375C136.455 32.9091 135.813 32.142 135.342 31.1364C134.87 30.1307 134.634 28.9091 134.634 27.4716C134.634 26.017 134.873 24.7898 135.35 23.7898C135.833 22.7841 136.484 22.0256 137.302 21.5142C138.12 20.9972 139.032 20.7386 140.038 20.7386C140.805 20.7386 141.435 20.8693 141.93 21.1307C142.424 21.3864 142.816 21.696 143.106 22.0597C143.396 22.4176 143.62 22.7557 143.779 23.0739H143.907V16.5455H147.001V34H143.967V31.9375H143.779C143.62 32.2557 143.39 32.5937 143.089 32.9517C142.788 33.304 142.39 33.6051 141.896 33.8551C141.401 34.1051 140.779 34.2301 140.029 34.2301ZM140.89 31.6989C141.543 31.6989 142.1 31.5227 142.56 31.1705C143.021 30.8125 143.37 30.3153 143.609 29.679C143.847 29.0426 143.967 28.3011 143.967 27.4545C143.967 26.608 143.847 25.8722 143.609 25.2472C143.376 24.6222 143.029 24.1364 142.569 23.7898C142.114 23.4432 141.555 23.2699 140.89 23.2699C140.202 23.2699 139.629 23.4489 139.168 23.8068C138.708 24.1648 138.362 24.6591 138.129 25.2898C137.896 25.9205 137.779 26.642 137.779 27.4545C137.779 28.2727 137.896 29.0028 138.129 29.6449C138.367 30.2812 138.717 30.7841 139.177 31.1534C139.643 31.517 140.214 31.6989 140.89 31.6989Z" fill="#030712"/>
<rect width="40" height="40" rx="20" fill="url(#paint0_linear_61_82)"/>
<path d="M23.75 20C23.75 20.1989 23.671 20.3897 23.5303 20.5303C23.3897 20.671 23.1989 20.75 23 20.75H17C16.8011 20.75 16.6103 20.671 16.4697 20.5303C16.329 20.3897 16.25 20.1989 16.25 20C16.25 19.8011 16.329 19.6103 16.4697 19.4697C16.6103 19.329 16.8011 19.25 17 19.25H23C23.1989 19.25 23.3897 19.329 23.5303 19.4697C23.671 19.6103 23.75 19.8011 23.75 20ZM23 22.25H17C16.8011 22.25 16.6103 22.329 16.4697 22.4697C16.329 22.6103 16.25 22.8011 16.25 23C16.25 23.1989 16.329 23.3897 16.4697 23.5303C16.6103 23.671 16.8011 23.75 17 23.75H23C23.1989 23.75 23.3897 23.671 23.5303 23.5303C23.671 23.3897 23.75 23.1989 23.75 23C23.75 22.8011 23.671 22.6103 23.5303 22.4697C23.3897 22.329 23.1989 22.25 23 22.25ZM28.25 11.75V26.75C28.25 27.5456 27.9339 28.3087 27.3713 28.8713C26.8087 29.4339 26.0456 29.75 25.25 29.75H14.75C13.9544 29.75 13.1913 29.4339 12.6287 28.8713C12.0661 28.3087 11.75 27.5456 11.75 26.75V11.75C11.75 11.5511 11.829 11.3603 11.9697 11.2197C12.1103 11.079 12.3011 11 12.5 11H14.75V10.25C14.75 10.0511 14.829 9.86032 14.9697 9.71967C15.1103 9.57902 15.3011 9.5 15.5 9.5C15.6989 9.5 15.8897 9.57902 16.0303 9.71967C16.171 9.86032 16.25 10.0511 16.25 10.25V11H19.25V10.25C19.25 10.0511 19.329 9.86032 19.4697 9.71967C19.6103 9.57902 19.8011 9.5 20 9.5C20.1989 9.5 20.3897 9.57902 20.5303 9.71967C20.671 9.86032 20.75 10.0511 20.75 10.25V11H23.75V10.25C23.75 10.0511 23.829 9.86032 23.9697 9.71967C24.1103 9.57902 24.3011 9.5 24.5 9.5C24.6989 9.5 24.8897 9.57902 25.0303 9.71967C25.171 9.86032 25.25 10.0511 25.25 10.25V11H27.5C27.6989 11 27.8897 11.079 28.0303 11.2197C28.171 11.3603 28.25 11.5511 28.25 11.75ZM26.75 12.5H25.25V13.25C25.25 13.4489 25.171 13.6397 25.0303 13.7803C24.8897 13.921 24.6989 14 24.5 14C24.3011 14 24.1103 13.921 23.9697 13.7803C23.829 13.6397 23.75 13.4489 23.75 13.25V12.5H20.75V13.25C20.75 13.4489 20.671 13.6397 20.5303 13.7803C20.3897 13.921 20.1989 14 20 14C19.8011 14 19.6103 13.921 19.4697 13.7803C19.329 13.6397 19.25 13.4489 19.25 13.25V12.5H16.25V13.25C16.25 13.4489 16.171 13.6397 16.0303 13.7803C15.8897 13.921 15.6989 14 15.5 14C15.3011 14 15.1103 13.921 14.9697 13.7803C14.829 13.6397 14.75 13.4489 14.75 13.25V12.5H13.25V26.75C13.25 27.1478 13.408 27.5294 13.6893 27.8107C13.9706 28.092 14.3522 28.25 14.75 28.25H25.25C25.6478 28.25 26.0294 28.092 26.3107 27.8107C26.592 27.5294 26.75 27.1478 26.75 26.75V12.5Z" fill="white"/>
<defs>
<linearGradient id="paint0_linear_61_82" x1="20" y1="0" x2="20" y2="40" gradientUnits="userSpaceOnUse">
<stop offset="0.0463594" stop-color="#7C3AED"/>
<stop offset="1" stop-color="#1A3876"/>
</linearGradient>
</defs>
</svg>
